<svg width="102" height="24" viewBox="0 0 102 24" fill="none" xmlns="http://www.w3.org/2000/svg">
                    <path d="M88.418 0.330471V23.6695H92.632V8.18163L96.5542 23.6695H102V0.330471H97.786V15.8184L93.8637 0.330471H88.418Z" fill="#F2F2F2" :fill="currentBg === 'black' ? '#F2F2F2' : '#000000'"></path>
                    <path d="M79.078 23.9937C77.8246 23.9937 76.7117 23.7344 75.7393 23.2157C74.7884 22.6971 73.9888 21.9299 73.3405 20.9142C72.6922 19.8769 72.1952 18.6127 71.8494 17.1216C71.5253 15.6089 71.3632 13.8693 71.3632 11.9028C71.3632 9.30953 71.6549 7.1377 72.2384 5.38727C72.8219 3.61523 73.6863 2.27539 74.8316 1.36776C75.977 0.460132 77.3816 0.00631714 79.0456 0.00631714C80.7528 0.00631714 82.1791 0.460132 83.3244 1.36776C84.4698 2.25378 85.3342 3.58281 85.9177 5.35485C86.5012 7.12689 86.7929 9.32033 86.7929 11.9352C86.7929 13.9017 86.62 15.6413 86.2742 17.154C85.9501 18.6452 85.4639 19.8985 84.8156 20.9142C84.1673 21.9299 83.3569 22.6971 82.3844 23.2157C81.4336 23.7344 80.3314 23.9937 79.078 23.9937ZM79.0456 20.3632C79.7588 20.3632 80.3422 20.0714 80.7961 19.4879C81.2499 18.8829 81.5848 17.9536 81.8009 16.7002C82.017 15.4468 82.1251 13.8369 82.1251 11.8703C82.1251 9.92542 82.017 8.34787 81.8009 7.1377C81.5848 5.92752 81.2499 5.0415 80.7961 4.47964C80.3422 3.91777 79.7588 3.63684 79.0456 3.63684C78.3541 3.63684 77.7814 3.91777 77.3276 4.47964C76.8738 5.0415 76.5388 5.92752 76.3227 7.1377C76.1282 8.32626 76.031 9.90381 76.031 11.8703C76.031 13.8369 76.139 15.4468 76.3551 16.7002C76.5713 17.9536 76.8954 18.8829 77.3276 19.4879C77.7814 20.0714 78.3541 20.3632 79.0456 20.3632Z" :fill="currentBg === 'black' ? '#F2F2F2' : '#000000'" fill="#F2F2F2"></path>
                    <path :fill="currentBg === 'black' ? '#F2F2F2' : '#000000'" d="M62.8078 23.9937C61.6192 23.9937 60.5603 23.7344 59.6311 23.2157C58.7019 22.6971 57.9239 21.9299 57.2972 20.9142C56.6705 19.8985 56.1951 18.6452 55.8709 17.154C55.5468 15.6629 55.3847 13.9449 55.3847 12C55.3847 10.0551 55.5468 8.33706 55.8709 6.84596C56.1951 5.35485 56.6705 4.10146 57.2972 3.08578C57.9455 2.07009 58.7343 1.30293 59.6635 0.784285C60.6144 0.26564 61.6949 0.00631714 62.905 0.00631714C64.3745 0.00631714 65.6171 0.384496 66.6328 1.14085C67.6701 1.8756 68.4589 2.94531 68.9991 4.34998C69.5394 5.75464 69.8095 7.47266 69.8095 9.50402H65.2714C65.2714 7.47266 65.0661 5.99235 64.6555 5.06311C64.2449 4.11226 63.629 3.63684 62.8078 3.63684C62.1811 3.63684 61.6625 3.90697 61.2519 4.44722C60.8413 4.96587 60.5387 5.83028 60.3442 7.04045C60.1497 8.22901 60.0525 9.83898 60.0525 11.8703C60.0525 13.9017 60.1497 15.5441 60.3442 16.7975C60.5603 18.0509 60.8737 18.9585 61.2843 19.5204C61.6949 20.0822 62.2027 20.3632 62.8078 20.3632C63.6074 20.3632 64.2125 19.8769 64.6231 18.9045C65.0337 17.932 65.239 16.4625 65.239 14.496H69.8095C69.8095 16.4841 69.5286 18.1913 68.9667 19.6176C68.4265 21.0223 67.6269 22.1028 66.568 22.8591C65.5307 23.6155 64.2773 23.9937 62.8078 23.9937Z" fill="#F2F2F2"></path>
                    <path :fill="currentBg === 'black' ? '#F2F2F2' : '#000000'" fill-rule="evenodd" clip-rule="evenodd" d="M27.1377 23.6695V0.330471H33.556C34.939 0.330471 36.0844 0.622209 36.992 1.20569C37.8996 1.78916 38.5804 2.56713 39.0342 3.53959C39.488 4.49044 39.7149 5.53854 39.7149 6.68388C39.7149 8.26143 39.2935 9.56885 38.4507 10.6061C38.0914 11.06 37.6556 11.458 37.1433 11.8001C37.6917 12.0752 38.1167 12.4228 38.4183 12.8428C39.0234 13.6856 39.3259 14.7661 39.3259 16.0843V23.6695H34.7229V16.2464C34.7229 15.4901 34.5501 14.9282 34.2043 14.5608C33.8585 14.1718 33.3723 13.9773 32.7456 13.9773H31.7407V23.6695H27.1377ZM32.9074 10.3469C33.5989 10.3469 34.1392 10.066 34.5282 9.50415C34.9172 8.94228 35.1117 8.11029 35.1117 7.00816C35.1117 5.92765 34.9172 5.10646 34.5282 4.5446C34.1392 3.98273 33.5989 3.7018 32.9074 3.7018H31.7405V10.3469H32.9074Z" fill="#F2F2F2"></path>
                    <path :fill="currentBg === 'black' ? '#F2F2F2' : '#000000'" fill-rule="evenodd" clip-rule="evenodd" d="M10.987 23.6695L15.5576 0.330471H21.522L26.0926 23.6695H21.4572L20.6686 18.6452H16.0868L15.2983 23.6695H10.987ZM20.109 15.0794L18.3777 4.04811L16.6464 15.0794H20.109Z" fill="#F2F2F2"></path>
                    <path :fill="currentBg === 'black' ? '#F2F2F2' : '#000000'" fill-rule="evenodd" clip-rule="evenodd" d="M40.3768 23.6695L44.9473 0.330471H50.9117L55.4823 23.6695H50.8469L50.0584 18.6452H45.4765L44.688 23.6695H40.3768ZM49.4987 15.0794L47.7674 4.04811L46.0361 15.0794H49.4987Z" fill="#F2F2F2"></path>
                    <path :fill="currentBg === 'black' ? '#F2F2F2' : '#000000'" d="M0 0.330471V23.6695H9.98393V20.1038H4.60298V0.330471H0Z" fill="#F2F2F2"></path>
                </svg>